<svg width="81" height="30" viewBox="0 0 81 30" fill="none" xmlns="http://www.w3.org/2000/svg">
<path d="M8.50481 3.75C12.524 1.42949 17.476 1.42949 21.4952 3.75C25.5144 6.07051 27.9904 10.359 27.9904 15C27.9904 19.641 25.5144 23.9295 21.4952 26.25C17.476 28.5705 12.524 28.5705 8.50481 26.25C4.48557 23.9295 2.00962 19.641 2.00962 15C2.00962 10.359 4.48557 6.07051 8.50481 3.75Z" fill="#1061FF"/>
<rect x="9" y="9" width="12" height="12" rx="6" fill="#00FF57"/>
<path d="M46.9886 14.9545C46.9886 16.3651 46.7244 17.5732 46.196 18.5788C45.6719 19.5803 44.956 20.3473 44.0483 20.88C43.1449 21.4126 42.12 21.679 40.9737 21.679C39.8274 21.679 38.8004 21.4126 37.8928 20.88C36.9893 20.343 36.2734 19.5739 35.745 18.5724C35.2209 17.5668 34.9588 16.3608 34.9588 14.9545C34.9588 13.544 35.2209 12.3381 35.745 11.3366C36.2734 10.331 36.9893 9.56179 37.8928 9.02912C38.8004 8.49645 39.8274 8.23011 40.9737 8.23011C42.12 8.23011 43.1449 8.49645 44.0483 9.02912C44.956 9.56179 45.6719 10.331 46.196 11.3366C46.7244 12.3381 46.9886 13.544 46.9886 14.9545ZM44.6044 14.9545C44.6044 13.9616 44.4489 13.1243 44.1378 12.4425C43.831 11.7564 43.4048 11.2386 42.8594 10.8892C42.3139 10.5355 41.6854 10.3587 40.9737 10.3587C40.2621 10.3587 39.6335 10.5355 39.0881 10.8892C38.5426 11.2386 38.1143 11.7564 37.8033 12.4425C37.4964 13.1243 37.343 13.9616 37.343 14.9545C37.343 15.9474 37.4964 16.7869 37.8033 17.473C38.1143 18.1548 38.5426 18.6726 39.0881 19.0263C39.6335 19.3757 40.2621 19.5504 40.9737 19.5504C41.6854 19.5504 42.3139 19.3757 42.8594 19.0263C43.4048 18.6726 43.831 18.1548 44.1378 17.473C44.4489 16.7869 44.6044 15.9474 44.6044 14.9545ZM49.1284 25.1818V11.6818H51.4039V13.3054H51.5382C51.6575 13.0668 51.8258 12.8132 52.0431 12.5447C52.2605 12.272 52.5545 12.0398 52.9252 11.848C53.296 11.652 53.769 11.554 54.3443 11.554C55.1028 11.554 55.7868 11.7479 56.3961 12.1357C57.0098 12.5192 57.4956 13.0881 57.8535 13.8423C58.2157 14.5923 58.3968 15.5128 58.3968 16.6037C58.3968 17.6818 58.22 18.598 57.8663 19.3523C57.5126 20.1065 57.0311 20.6818 56.4217 21.0781C55.8123 21.4744 55.122 21.6726 54.3507 21.6726C53.7882 21.6726 53.3216 21.5788 52.9508 21.3913C52.5801 21.2038 52.2818 20.978 52.0559 20.7138C51.8343 20.4453 51.6618 20.1918 51.5382 19.9531H51.4423V25.1818H49.1284ZM51.3975 16.5909C51.3975 17.2259 51.487 17.782 51.666 18.2592C51.8493 18.7365 52.1113 19.1094 52.4522 19.3778C52.7974 19.642 53.215 19.7741 53.7051 19.7741C54.2164 19.7741 54.6447 19.6378 54.9899 19.3651C55.335 19.0881 55.595 18.7109 55.7697 18.2337C55.9487 17.7521 56.0382 17.2045 56.0382 16.5909C56.0382 15.9815 55.9508 15.4403 55.7761 14.9673C55.6014 14.4943 55.3414 14.1236 54.9963 13.8551C54.6511 13.5866 54.2207 13.4524 53.7051 13.4524C53.2108 13.4524 52.791 13.5824 52.4458 13.8423C52.1007 14.1023 51.8386 14.4666 51.6596 14.9354C51.4849 15.4041 51.3975 15.956 51.3975 16.5909ZM64.725 21.6918C63.7406 21.6918 62.8904 21.4872 62.1745 21.0781C61.4629 20.6648 60.9153 20.081 60.5318 19.3267C60.1483 18.5682 59.9565 17.6754 59.9565 16.6484C59.9565 15.6385 60.1483 14.7521 60.5318 13.9893C60.9196 13.2223 61.4608 12.6257 62.1554 12.1996C62.85 11.7692 63.666 11.554 64.6035 11.554C65.2086 11.554 65.7797 11.652 66.3166 11.848C66.8578 12.0398 67.3351 12.3381 67.7484 12.7429C68.166 13.1477 68.4941 13.6634 68.7328 14.2898C68.9714 14.9119 69.0907 15.6534 69.0907 16.5142V17.2237H61.0431V15.6641H66.8727C66.8684 15.2209 66.7726 14.8267 66.5851 14.4815C66.3976 14.1321 66.1355 13.8572 65.7988 13.657C65.4664 13.4567 65.0787 13.3565 64.6355 13.3565C64.1625 13.3565 63.747 13.4716 63.389 13.7017C63.0311 13.9276 62.752 14.2259 62.5517 14.5966C62.3556 14.9631 62.2555 15.3658 62.2512 15.8047V17.1662C62.2512 17.7372 62.3556 18.2273 62.5645 18.6364C62.7733 19.0412 63.0652 19.3523 63.4402 19.5696C63.8152 19.7827 64.2541 19.8892 64.7569 19.8892C65.0936 19.8892 65.3983 19.8423 65.671 19.7486C65.9437 19.6506 66.1802 19.5078 66.3805 19.3203C66.5808 19.1328 66.7321 18.9006 66.8343 18.6236L68.9949 18.8665C68.8585 19.4375 68.5985 19.9361 68.215 20.3622C67.8358 20.7841 67.35 21.1122 66.7576 21.3466C66.1653 21.5767 65.4877 21.6918 64.725 21.6918ZM73.3622 15.7472V21.5H71.0483V11.6818H73.2599V13.3501H73.375C73.6009 12.8004 73.9609 12.3636 74.4553 12.0398C74.9538 11.7159 75.5696 11.554 76.3026 11.554C76.9801 11.554 77.5703 11.6989 78.0732 11.9886C78.5803 12.2784 78.9723 12.6982 79.2493 13.2479C79.5305 13.7976 79.669 14.4645 79.6648 15.2486V21.5H77.3509V15.6065C77.3509 14.9503 77.1804 14.4368 76.8395 14.0661C76.5028 13.6953 76.0362 13.5099 75.4396 13.5099C75.0348 13.5099 74.6747 13.5994 74.3594 13.7784C74.0483 13.9531 73.8033 14.2067 73.6243 14.5391C73.4496 14.8714 73.3622 15.2741 73.3622 15.7472Z" fill="white"/>
</svg>
